<?xml version="1.0" encoding="utf-8"?>
<!-- Generator: Adobe Illustrator 16.0.3, SVG Export Plug-In . SVG Version: 6.00 Build 0)  -->
<!DOCTYPE svg PUBLIC "-//W3C//DTD SVG 1.1//EN" "http://www.w3.org/Graphics/SVG/1.1/DTD/svg11.dtd">
<svg version="1.1"
	 id="Vrstva_1" xmlns:inkscape="http://www.inkscape.org/namespaces/inkscape" xmlns:inkpad="http://inkpad.envoza.com/svg_extensions"
	 xmlns="http://www.w3.org/2000/svg" xmlns:xlink="http://www.w3.org/1999/xlink" x="0px" y="0px" width="512px" height="512px"
	 viewBox="0 0 512 512" enable-background="new 0 0 512 512" xml:space="preserve">
<path fill="#F7F7F5" d="M80,208v24H40c-2.3-0.001-4.49,0.989-6.009,2.717c-1.519,1.727-2.221,4.025-1.927,6.307l32,248
	c0.515,3.989,3.913,6.977,7.936,6.976h368c4.023,0.001,7.421-2.986,7.936-6.976l32-248c0.295-2.282-0.407-4.58-1.927-6.307
	c-1.519-1.728-3.708-2.718-6.009-2.717h-40v-24c0-4.418-3.582-8-8-8h-56v-8c0-4.418-3.582-8-8-8h-8v-72c0-53.02-42.98-96-96-96
	c-53.019,0-96,42.98-96,96v72h-8c-4.418,0-8,3.582-8,8v8H88C83.582,200,80,203.582,80,208z M432,376V248h30.904l-29.937,232H79.032
	L49.096,248H80v128c0,4.418,3.582,8,8,8h336C428.418,384,432,380.418,432,376z M224,200v-8c0-4.418-3.582-8-8-8h-8v-72
	c0-26.51,21.49-48,48-48s48,21.49,48,48v72h-8c-4.418,0-8,3.582-8,8v8H224z M288,216v88h-64v-88H288z M216,320h80
	c4.418,0,8,3.582,8,8v8h-96v-8C208,323.582,211.582,320,216,320z M288,352v16h-64v-16H288z M400,344V216h16v152H304v-16h88
	C396.418,352,400,348.418,400,344z M360,232c4.418,0,8-3.582,8-8v-8h16v120h-64v-8c-0.042-10.134-6.445-19.15-16-22.528V232h32
	v25.473c-11.02,3.896-17.631,15.164-15.654,26.686c1.977,11.52,11.965,19.94,23.654,19.94s21.678-8.421,23.654-19.94
	c1.977-11.521-4.635-22.79-15.654-26.686V232H360z M344,272c4.418,0,8,3.582,8,8s-3.582,8-8,8s-8-3.582-8-8S339.582,272,344,272z
	 M352,200v16h-48v-16H352z M176,112c0-44.183,35.817-80,80-80c44.184,0,80,35.817,80,80v72h-16v-72c0-35.346-28.654-64-64-64
	c-35.346,0-64,28.654-64,64v72h-16V112z M160,200h48v16h-48V200z M128,216h16v8c0,4.418,3.582,8,8,8h56v73.472
	c-9.555,3.378-15.958,12.395-16,22.528v8h-64V216z M96,216h16v128c0,4.418,3.582,8,8,8h88v16H96V216z"/>
<path fill="#F9B949" d="M103.888,406.688l-15.776,2.625l8,48c0.642,3.857,3.977,6.686,7.888,6.688h32v-16h-25.224L103.888,406.688z"
	/>
<path fill="#F9B949" d="M152,448h16v16h-16V448z"/>
<path fill="#F9B949" d="M184,448h16v16h-16V448z"/>
</svg>
