<?xml version="1.0" encoding="iso-8859-1"?>
<!-- Uploaded to: SVG Repo, www.svgrepo.com, Generator: SVG Repo Mixer Tools -->
<svg height="800px" width="800px" version="1.1" id="Layer_1" xmlns="http://www.w3.org/2000/svg" xmlns:xlink="http://www.w3.org/1999/xlink" 
	 viewBox="0 0 512 512" xml:space="preserve">
<path style="fill:#47CEAC;" d="M0,256.006C0,397.402,114.606,512.004,255.996,512C397.394,512.004,512,397.402,512,256.006
	C512.009,114.61,397.394,0,255.996,0C114.606,0,0,114.614,0,256.006z"/>
<path style="fill:#36BB9A;" d="M507.078,306.147c-1.885-1.889-197.766-197.727-198.254-198.218
	C295.19,93.418,276.401,84.267,256,84.267c-40.477,0-74.667,35.964-74.667,78.531v33.469h-11.033
	c-43.318,0-78.567,35.249-78.567,78.567v111.483c0,11.793,5.011,22.384,12.948,29.935c0.479,0.503,82.787,82.544,82.948,82.585
	c1.684,1.753,3.36,3.509,5.039,5.265c20.254,5.153,41.47,7.899,63.328,7.899C380.232,512.003,483.771,423.529,507.078,306.147z"/>
<g>
	<path style="fill:#F4F6F9;" d="M344.9,196.267h-14.234v-33.469c0-42.569-34.191-78.531-74.667-78.531s-74.667,35.963-74.667,78.531
		v33.469h-11.033c-43.319,0-78.567,35.248-78.567,78.567v111.483c0,22.837,18.579,41.417,41.417,41.417h245.7
		c22.837,0,41.417-18.579,41.417-41.417V271.633C420.267,230.078,386.455,196.267,344.9,196.267z M196.267,162.798
		c0-34.475,27.351-63.598,59.733-63.598c32.382,0,59.733,29.123,59.733,63.598v33.469H196.267V162.798z M170.301,211.2h11.033v22.4
		c0,4.127,3.34,7.467,7.467,7.467s7.467-3.34,7.467-7.467v-22.4h119.467v22.4c0,4.127,3.34,7.467,7.467,7.467
		s7.467-3.34,7.467-7.467v-22.4H344.9c33.323,0,60.433,27.11,60.433,60.433v70.48c-37.354,3.541-67.146,33.333-70.686,70.686
		H177.353c-3.541-37.354-33.333-67.146-70.686-70.686v-67.279C106.667,239.747,135.214,211.2,170.301,211.2z M106.667,386.317
		v-29.17c29.101,3.425,52.228,26.553,55.653,55.653h-29.17C118.545,412.8,106.667,400.922,106.667,386.317z M378.85,412.8h-29.17
		c3.425-29.101,26.553-52.228,55.653-55.653v29.17C405.333,400.922,393.455,412.8,378.85,412.8z"/>
	<path style="fill:#F4F6F9;" d="M144,293.333h194.133v7.467c0,4.127,3.34,7.467,7.467,7.467s7.467-3.34,7.467-7.467v-7.467H368
		c4.127,0,7.467-3.34,7.467-7.467s-3.34-7.467-7.467-7.467H144c-4.127,0-7.467,3.34-7.467,7.467S139.873,293.333,144,293.333z"/>
</g>
</svg>