<?xml version="1.0" encoding="iso-8859-1"?>
<!-- Uploaded to: SVG Repo, www.svgrepo.com, Generator: SVG Repo Mixer Tools -->
<svg height="800px" width="800px" version="1.1" id="Layer_1" xmlns="http://www.w3.org/2000/svg" xmlns:xlink="http://www.w3.org/1999/xlink" 
	 viewBox="0 0 512 512" xml:space="preserve">
<path style="fill:#5D9BEB;" d="M512,256.006C512,397.402,397.394,512.004,256.004,512C114.606,512.004,0,397.402,0,256.006
	C-0.007,114.61,114.606,0,256.004,0C397.394,0,512,114.614,512,256.006z"/>
<path style="fill:#4988DB;" d="M508.385,299.009c0.843-4.979-199.075-198.057-199.562-198.548C295.189,85.95,276.401,76.8,256,76.8
	c-40.477,0-74.667,35.963-74.667,78.527v48.406h-26.002c-43.305,0-78.531,35.226-78.531,78.528v74.412
	c0,22.025,9.143,41.929,23.797,56.203c0.482,0.495,66.498,66.458,73.167,73.076c3.712,3.684,12.857,16.589,17.897,17.893
	c20.559,5.321,42.121,8.156,64.345,8.155C382.738,512.003,487.934,419.923,508.385,299.009z"/>
<path style="fill:#F4F6F9;" d="M356.669,203.733h-26.002v-48.405c0-42.565-34.191-78.528-74.667-78.528
	s-74.667,35.963-74.667,78.528v48.405h-26.002c-43.306,0-78.531,35.226-78.531,78.528v74.412c0,43.301,35.226,78.528,78.531,78.528
	h201.338c43.306-0.001,78.531-35.227,78.531-78.529v-74.411C435.2,238.959,399.974,203.733,356.669,203.733z M360.533,218.863
	c5.159,0.313,10.175,1.168,14.933,2.644v195.92c-4.758,1.475-9.774,2.332-14.933,2.644V218.863z M196.267,155.328
	c0-34.471,27.351-63.595,59.733-63.595c32.382,0,59.733,29.123,59.733,63.595v48.405H196.267V155.328z M188.8,248.533
	c4.127,0,7.467-3.343,7.467-7.467v-22.4h119.467v22.4c0,4.124,3.34,7.467,7.467,7.467s7.467-3.343,7.467-7.467v-22.4H345.6v201.6
	H166.4v-201.6h14.933v22.4C181.333,245.19,184.673,248.533,188.8,248.533z M151.467,420.07c-5.159-0.313-10.175-1.168-14.933-2.644
	V221.507c4.758-1.475,9.774-2.332,14.933-2.644V420.07z M91.733,356.672v-74.411c0-22.669,11.962-42.55,29.867-53.814v182.039
	C103.695,399.222,91.733,379.341,91.733,356.672z M420.267,356.672c0,22.669-11.962,42.55-29.867,53.814V228.447
	c17.905,11.263,29.867,31.145,29.867,53.814V356.672z"/>
</svg>