<?xml version="1.0" encoding="utf-8"?>
<!-- Generator: Adobe Illustrator 16.0.3, SVG Export Plug-In . SVG Version: 6.00 Build 0)  -->
<!DOCTYPE svg PUBLIC "-//W3C//DTD SVG 1.1//EN" "http://www.w3.org/Graphics/SVG/1.1/DTD/svg11.dtd">
<svg version="1.1"
	 id="Vrstva_1" xmlns:inkscape="http://www.inkscape.org/namespaces/inkscape" xmlns:inkpad="http://inkpad.envoza.com/svg_extensions"
	 xmlns="http://www.w3.org/2000/svg" xmlns:xlink="http://www.w3.org/1999/xlink" x="0px" y="0px" width="1311.425px"
	 height="512px" viewBox="0 0 1311.425 512" enable-background="new 0 0 1311.425 512" xml:space="preserve">
<path fill="#71716F" d="M495.956,184.837c0.237-2.255-0.494-4.505-2.011-6.19C492.428,176.962,490.267,176,488,176h-45.578
	L440,174.385V152c0-74.99-61.009-136-136-136c-75.111,0-136,60.889-136,136v22.385L165.578,176H120
	c-2.267,0-4.428,0.962-5.945,2.647c-1.517,1.685-2.248,3.935-2.011,6.19l9.17,87.163H104v-8c0-3.271-1.992-6.213-5.029-7.428l-40-16
	C58.026,240.194,57.018,240,56,240H24c-4.418,0-8,3.582-8,8v32c0,4.418,3.582,8,8,8h13.708c-4.607,6.068-7.369,13.336-7.957,20.933
	l-11.077,144c-0.854,11.109,2.963,22.07,10.534,30.245S47.415,496,58.556,496H488c4.418,0,8-3.582,8-8V328
	c0.001-2.43-1.103-4.728-3-6.247l-11.241-8.993h0.728L495.956,184.837z M176,188.281l16-10.666l16,10.666V240h-32V188.281z
	 M218.422,176L216,174.385V152c0-48.601,39.399-88,88-88c48.602,0,88,39.399,88,88v22.385L389.578,176H218.422z M400,188.281
	l16-10.666l16,10.666V240h-32V188.281z M184,152c0-66.274,53.726-120,120-120c66.273,0,120,53.726,120,120v11.719l-3.563-2.375
	c-2.687-1.792-6.188-1.792-8.875,0L408,163.719V152c0-57.438-46.563-104-104-104c-57.438,0-104,46.563-104,104v11.719l-3.562-2.375
	c-2.687-1.792-6.189-1.792-8.876,0L184,163.719V152z M144,320h48c4.418,0,8-3.582,8-8v-24h66.367
	c12.521,0.051,22.92,9.68,23.933,22.159L298.438,416H37.562L45.7,310.159C46.713,297.68,57.112,288.051,69.633,288H136v24
	C136,316.418,139.582,320,144,320z M184,304h-32v-16h32V304z M32,256h22.459L88,269.416V272H32V256z M277.439,480H58.556
	c-6.685,0-13.067-2.788-17.609-7.693c-4.542-4.904-6.833-11.482-6.32-18.147L36.332,432h263.336l1.7,22.159
	c0.513,6.664-1.777,13.241-6.318,18.146c-4.541,4.905-10.922,7.694-17.606,7.695H277.439z M480,480H368V331.845L402.807,304h42.388
	L480,331.845V480z M453,289.753c-1.419-1.135-3.183-1.754-5-1.753h-48c-1.816-0.001-3.581,0.618-5,1.753l-40,32
	c-1.896,1.52-3.001,3.817-3,6.247v152h-42.559c5.814-7.772,8.615-17.388,7.885-27.067l-11.077-144
	c-1.688-20.799-19.015-36.844-39.882-36.933H137.3l-8.417-80H160v56c0,4.418,3.582,8,8,8h48c4.418,0,8-3.582,8-8v-56h160v56
	c0,4.418,3.582,8,8,8h48c4.418,0,8-3.582,8-8v-56h31.114L467.6,301.432L453,289.753z"/>
<path fill="#F9B949" d="M328,208h-48c-4.418,0-8,3.582-8,8v32c0,4.418,3.582,8,8,8h48c4.418,0,8-3.582,8-8v-32
	C336,211.582,332.418,208,328,208z M320,240h-32v-16h32V240z"/>
<path fill="#F9B949" d="M424,384c4.416,0.005,7.995,3.584,8,8c0,4.418,3.582,8,8,8s8-3.582,8-8
	c-0.013-10.166-6.419-19.224-16-22.624V360c0-4.418-3.582-8-8-8s-8,3.582-8,8v9.376c-11.016,3.9-17.621,15.166-15.645,26.683
	C402.331,407.576,412.314,415.995,424,416c4.418,0,8,3.582,8,8s-3.582,8-8,8s-8-3.582-8-8s-3.582-8-8-8s-8,3.582-8,8
	c0.014,10.166,6.419,19.224,16,22.624V456c0,4.418,3.582,8,8,8s8-3.582,8-8v-9.376c11.015-3.9,17.621-15.166,15.645-26.683
	C445.669,408.424,435.685,400.005,424,400c-4.418,0-8-3.582-8-8S419.582,384,424,384z"/>
<path fill="#F9B949" d="M416,328c0-4.418,3.582-8,8-8s8,3.582,8,8s-3.582,8-8,8S416,332.418,416,328z"/>
<text transform="matrix(1 0 0 1 589.375 207.3291)" fill="#71716F" font-family="'LEMONMILKProFTR-UltraLight'" font-size="176.6705">LUXURY</text>
<text transform="matrix(1 0 0 1 589.375 433.75)" fill="#71716F" font-family="'LEMONMILKPro-Regular'" font-size="260.7265">bags</text>
</svg>
